<?xml version="1.0" ?><svg height="128" id="svg8" version="1.1" viewBox="0 0 33.866666 33.866668" width="128" xmlns="http://www.w3.org/2000/svg" xmlns:svg="http://www.w3.org/2000/svg"><defs id="defs2"/><g id="layer1" transform="translate(0,-263.13332)"><g id="g5377" transform="matrix(0.35515264,0,0,0.35515264,-236.6017,-103.18616)"><g id="g6689" transform="matrix(0.39388924,0,0,0.39388924,-36.026156,630.74984)"><ellipse cx="1903.8408" cy="1138.3187" id="ellipse6584" rx="119.08465" ry="119.08923" style="display:inline;fill:#d9ed88;fill-opacity:1;fill-rule:evenodd;stroke:none;stroke-width:9.00000095;stroke-linecap:round;stroke-linejoin:round;stroke-miterlimit:4;stroke-dasharray:none;stroke-dashoffset:6.5999999;stroke-opacity:1"/><path d="m 2006.0967,1127.4209 c 3.5284,12.9123 1.4658,23.5927 -1.3029,34.3704" id="path6586" style="opacity:1;fill:none;fill-opacity:0;fill-rule:evenodd;stroke:none;stroke-width:6;stroke-linecap:round;stroke-linejoin:round;stroke-miterlimit:4;stroke-dasharray:none;stroke-dashoffset:0;stroke-opacity:1"/><path d="m 1798.3797,1185.349 c 58.7102,62.9352 166.7226,57.7761 210.5616,0.083 l -105.3226,-106.9365 z" id="path6598" style="fill:#ff7373;fill-opacity:1;fill-rule:evenodd;stroke:none;stroke-width:8.73816013;stroke-linecap:round;stroke-linejoin:round;stroke-miterlimit:4;stroke-dasharray:none;stroke-opacity:1"/><path d="m 1798.3789,1185.3496 -2.6094,2.6484 a 119.08465,119.08923 0 0 0 108.0703,69.4102 119.08465,119.08923 0 0 0 107.9375,-69.0957 l -2.8359,-2.8809 a 152.69535,154.86013 0 0 1 -10.4043,9.2715 152.69535,154.86013 0 0 1 -12.416,9.0039 152.69535,154.86013 0 0 1 -13.2402,7.7012 152.69535,154.86013 0 0 1 -13.9317,6.3242 152.69535,154.86013 0 0 1 -14.4844,4.8809 152.69535,154.86013 0 0 1 -14.8925,3.3906 152.69535,154.86013 0 0 1 -15.1524,1.8652 152.69535,154.86013 0 0 1 -10.8008,0.3887 152.69535,154.86013 0 0 1 -15.2441,-0.7754 152.69535,154.86013 0 0 1 -15.0918,-2.3125 152.69535,154.86013 0 0 1 -14.7891,-3.8301 152.69535,154.86013 0 0 1 -14.3379,-5.3066 152.69535,154.86013 0 0 1 -13.7421,-6.7344 152.69535,154.86013 0 0 1 -13.0137,-8.0898 152.69535,154.86013 0 0 1 -12.1504,-9.3692 152.69535,154.86013 0 0 1 -6.8711,-6.4902 z" id="path6594" style="fill:#b7ca6b;fill-opacity:1;fill-rule:evenodd;stroke:none;stroke-width:8.73816013;stroke-linecap:round;stroke-linejoin:round;stroke-miterlimit:4;stroke-dasharray:none;stroke-opacity:1"/><path d="m 1969.3162,1167.257 c 6.1063,7.0801 18.7939,21.2003 18.7939,21.2003" id="path6616" style="opacity:1;fill:none;fill-opacity:1;fill-rule:evenodd;stroke:none;stroke-width:6;stroke-linecap:round;stroke-linejoin:round;stroke-miterlimit:4;stroke-dasharray:none;stroke-dashoffset:0;stroke-opacity:1"/><g id="g6652" transform="matrix(0.53775333,0,0,0.53774928,810.06735,394.52448)"><path d="m 1965.4822,1458.3251 c -10.3479,11.2973 -20.0702,47.6603 0.9275,47.7693 19.4757,0.1015 9.3726,-38.2915 -0.9275,-47.7693 z" id="path6654" style="fill:#333333;fill-rule:evenodd;stroke:none;stroke-width:0.98948759px;stroke-linecap:butt;stroke-linejoin:miter;stroke-opacity:1"/><path d="m 2106.0926,1459.5644 c -10.3479,11.2973 -20.0702,47.6603 0.9275,47.7693 19.4757,0.1015 9.3726,-38.2915 -0.9275,-47.7693 z" id="path6656" style="fill:#333333;fill-rule:evenodd;stroke:none;stroke-width:0.98948759px;stroke-linecap:butt;stroke-linejoin:miter;stroke-opacity:1"/><path d="m 2037.6544,1361.6609 c -10.3479,11.2973 -20.0702,47.6603 0.9275,47.7693 19.4757,0.1015 9.3726,-38.2915 -0.9275,-47.7693 z" id="path6658" style="fill:#333333;fill-rule:evenodd;stroke:none;stroke-width:0.98948759px;stroke-linecap:butt;stroke-linejoin:miter;stroke-opacity:1"/></g></g><path d="m 700.09597,1118.8533 c 7.42025,2.1333 15.34351,2.4946 22.92713,1.0456 1.54547,-0.2953 3.07681,-0.6645 4.58707,-1.1058" id="path6302" style="fill:none;fill-rule:evenodd;stroke:#ffffff;stroke-width:3.375;stroke-linecap:round;stroke-linejoin:round;stroke-miterlimit:4;stroke-dasharray:none;stroke-opacity:1"/></g></g></svg>